HIERARCHY
ROOT Hips
{
	OFFSET 0.000000 87.230942 0.000000
	CHANNELS 6 Xposition Yposition Zposition Xrotation Yrotation Zrotation
	JOINT Pelvis
	{
		OFFSET 0.000000 0.000000 0.000000
		CHANNELS 3 Xrotation Yrotation Zrotation
		JOINT LeftUpLeg
		{
			OFFSET 12.017000 -9.376404 -2.439400
			CHANNELS 3 Xrotation Yrotation Zrotation
			JOINT LeftLeg
			{
				OFFSET -0.007312 -32.846973 2.110600
				CHANNELS 3 Xrotation Yrotation Zrotation
				JOINT LeftFoot
				{
					OFFSET 0.007312 -32.065170 -0.570400
					CHANNELS 3 Xrotation Yrotation Zrotation
					JOINT LeftToeBase
					{
						OFFSET 0.728300 -11.045900 13.180700
						CHANNELS 3 Xrotation Yrotation Zrotation
						End Site
						{
							OFFSET 0.000000 17.212589 0.000000
						}
					}
				}
				JOINT LeftPantLeg
				{
					OFFSET 0.002788 -16.709013 -3.143600
					CHANNELS 3 Xrotation Yrotation Zrotation
					End Site
					{
						OFFSET -0.605125 24.528742 0.000000
					}
				}
			}
			JOINT Left_Butt
			{
				OFFSET -6.630234 1.326584 -3.183700
				CHANNELS 3 Xrotation Yrotation Zrotation
				End Site
				{
					OFFSET -0.498041 20.188049 0.000000
				}
			}
		}
		JOINT RightUpLeg
		{
			OFFSET -11.717000 -9.376404 -2.439400
			CHANNELS 3 Xrotation Yrotation Zrotation
			JOINT RightLeg
			{
				OFFSET -0.003241 -32.846912 2.110600
				CHANNELS 3 Xrotation Yrotation Zrotation
				JOINT RightFoot
				{
					OFFSET 0.003241 -32.065136 -0.570500
					CHANNELS 3 Xrotation Yrotation Zrotation
					JOINT RightToeBase
					{
						OFFSET -0.728300 -11.045901 13.180700
						CHANNELS 3 Xrotation Yrotation Zrotation
						End Site
						{
							OFFSET 0.000000 17.212593 0.000000
						}
					}
				}
				JOINT RightPantLeg
				{
					OFFSET 0.008142 -16.708982 -3.143700
					CHANNELS 3 Xrotation Yrotation Zrotation
					End Site
					{
						OFFSET 0.605088 24.528715 0.000000
					}
				}
			}
			JOINT Right_Butt
			{
				OFFSET 6.630732 1.326584 -3.183700
				CHANNELS 3 Xrotation Yrotation Zrotation
				End Site
				{
					OFFSET 0.498015 20.188240 0.000000
				}
			}
		}
	}
	JOINT Spine
	{
		OFFSET -0.062400 7.848404 3.918300
		CHANNELS 3 Xrotation Yrotation Zrotation
		JOINT Spine1
		{
			OFFSET -0.072800 11.422302 0.713400
			CHANNELS 3 Xrotation Yrotation Zrotation
			JOINT Spine2
			{
				OFFSET -0.083200 13.054001 -1.931600
				CHANNELS 3 Xrotation Yrotation Zrotation
				JOINT Neck
				{
					OFFSET -0.092200 14.121796 -5.138800
					CHANNELS 3 Xrotation Yrotation Zrotation
					JOINT Head
					{
						OFFSET 0.000200 10.447403 -0.842000
						CHANNELS 3 Xrotation Yrotation Zrotation
						JOINT Visor
						{
							OFFSET 0.457100 25.671204 16.550400
							CHANNELS 3 Xrotation Yrotation Zrotation
							End Site
							{
								OFFSET 0.000000 26.061493 0.000000
							}
						}
						JOINT HairMidA
						{
							OFFSET 0.459400 31.585403 8.437400
							CHANNELS 3 Xrotation Yrotation Zrotation
							End Site
							{
								OFFSET 0.000000 26.061493 0.000000
							}
						}
						JOINT HairMidB
						{
							OFFSET 0.464000 33.309204 -8.389700
							CHANNELS 3 Xrotation Yrotation Zrotation
							End Site
							{
								OFFSET 0.000000 26.061493 0.000000
							}
						}
						JOINT HairMidC
						{
							OFFSET 0.466600 27.991196 -17.375099
							CHANNELS 3 Xrotation Yrotation Zrotation
							End Site
							{
								OFFSET 0.000000 26.061493 0.000000
							}
						}
						JOINT HairMidD
						{
							OFFSET 0.467700 17.888092 -21.169500
							CHANNELS 3 Xrotation Yrotation Zrotation
							End Site
							{
								OFFSET 0.000000 26.061493 0.000000
							}
						}
						JOINT HairMidE
						{
							OFFSET 5.325700 3.514603 -14.369699
							CHANNELS 3 Xrotation Yrotation Zrotation
							End Site
							{
								OFFSET 0.000000 26.061493 0.000000
							}
						}
						JOINT HairMidF
						{
							OFFSET -4.394100 3.514603 -14.372400
							CHANNELS 3 Xrotation Yrotation Zrotation
							End Site
							{
								OFFSET 0.000000 26.061493 0.000000
							}
						}
						JOINT HairLeftA
						{
							OFFSET 15.319900 25.746506 2.623300
							CHANNELS 3 Xrotation Yrotation Zrotation
							End Site
							{
								OFFSET 0.000000 26.061493 0.000000
							}
						}
						JOINT HairLeftB
						{
							OFFSET 12.619500 29.289398 -8.731499
							CHANNELS 3 Xrotation Yrotation Zrotation
							End Site
							{
								OFFSET 0.000000 26.061493 0.000000
							}
						}
						JOINT HairLeftC
						{
							OFFSET 15.714800 15.959900 2.909800
							CHANNELS 3 Xrotation Yrotation Zrotation
							End Site
							{
								OFFSET 0.000000 26.061493 0.000000
							}
						}
						JOINT HairLeftD
						{
							OFFSET 16.101700 18.437408 -7.553200
							CHANNELS 3 Xrotation Yrotation Zrotation
							End Site
							{
								OFFSET 0.000000 26.061493 0.000000
							}
						}
						JOINT HairLeftE
						{
							OFFSET 9.731900 17.915009 -18.316799
							CHANNELS 3 Xrotation Yrotation Zrotation
							End Site
							{
								OFFSET 0.000000 26.061493 0.000000
							}
						}
						JOINT HairLeftF
						{
							OFFSET 11.204300 4.953598 -9.668100
							CHANNELS 3 Xrotation Yrotation Zrotation
							End Site
							{
								OFFSET 0.000000 26.061493 0.000000
							}
						}
						JOINT HairRightA
						{
							OFFSET -14.397900 25.746307 2.615100
							CHANNELS 3 Xrotation Yrotation Zrotation
							End Site
							{
								OFFSET 0.000000 26.061493 0.000000
							}
						}
						JOINT HairRightB
						{
							OFFSET -11.691200 29.289200 -8.738199
							CHANNELS 3 Xrotation Yrotation Zrotation
							End Site
							{
								OFFSET 0.000000 26.061493 0.000000
							}
						}
						JOINT HairRightC
						{
							OFFSET -14.792900 15.959702 2.901400
							CHANNELS 3 Xrotation Yrotation Zrotation
							End Site
							{
								OFFSET 0.000000 26.061493 0.000000
							}
						}
						JOINT HairRightD
						{
							OFFSET -15.174000 18.437195 -7.561900
							CHANNELS 3 Xrotation Yrotation Zrotation
							End Site
							{
								OFFSET 0.000000 26.061493 0.000000
							}
						}
						JOINT HairRightE
						{
							OFFSET -8.798200 17.914902 -18.322001
							CHANNELS 3 Xrotation Yrotation Zrotation
							End Site
							{
								OFFSET 0.000000 26.061493 0.000000
							}
						}
						JOINT HairRightF
						{
							OFFSET -10.275200 4.953506 -9.674099
							CHANNELS 3 Xrotation Yrotation Zrotation
							End Site
							{
								OFFSET 0.000000 26.061493 0.000000
							}
						}
					}
				}
				JOINT LeftShoulder
				{
					OFFSET 5.133500 7.341202 -1.867600
					CHANNELS 3 Xrotation Yrotation Zrotation
					JOINT LeftArm
					{
						OFFSET 8.072663 0.936867 -2.176600
						CHANNELS 3 Xrotation Yrotation Zrotation
						JOINT LeftForeArm
						{
							OFFSET 31.271999 0.000000 0.000000
							CHANNELS 3 Xrotation Yrotation Zrotation
							JOINT LeftHand
							{
								OFFSET 31.771030 0.000000 0.000000
								CHANNELS 3 Xrotation Yrotation Zrotation
								JOINT LeftHandThumb1
								{
									OFFSET 2.886520 -2.557846 4.416640
									CHANNELS 3 Xrotation Yrotation Zrotation
									JOINT LeftHandThumb2
									{
										OFFSET 2.371025 -1.368912 1.368911
										CHANNELS 3 Xrotation Yrotation Zrotation
										JOINT LeftHandThumb3
										{
											OFFSET 2.243378 -1.295212 1.295213
											CHANNELS 3 Xrotation Yrotation Zrotation
											End Site
											{
												OFFSET -0.332611 2.876945 0.020015
											}
										}
									}
								}
								JOINT LeftHandIndex1
								{
									OFFSET 8.568985 -0.641945 3.119977
									CHANNELS 3 Xrotation Yrotation Zrotation
									JOINT LeftHandIndex2
									{
										OFFSET 3.348503 0.000000 0.000000
										CHANNELS 3 Xrotation Yrotation Zrotation
										JOINT LeftHandIndex3
										{
											OFFSET 3.314552 0.000000 0.000000
											CHANNELS 3 Xrotation Yrotation Zrotation
											End Site
											{
												OFFSET -1.032898 3.075485 0.678796
											}
										}
									}
								}
								JOINT LeftHandMiddle1
								{
									OFFSET 8.124603 0.000000 0.000000
									CHANNELS 3 Xrotation Yrotation Zrotation
									JOINT LeftHandMiddle2
									{
										OFFSET 4.166275 0.000000 0.000000
										CHANNELS 3 Xrotation Yrotation Zrotation
										JOINT LeftHandMiddle3
										{
											OFFSET 3.018135 0.000000 0.000000
											CHANNELS 3 Xrotation Yrotation Zrotation
											End Site
											{
												OFFSET -1.032700 2.767982 0.617226
											}
										}
									}
								}
								JOINT LeftHandRing1
								{
									OFFSET 8.571686 -0.031357 -2.884048
									CHANNELS 3 Xrotation Yrotation Zrotation
									JOINT LeftHandRing2
									{
										OFFSET 3.671181 0.000000 0.000000
										CHANNELS 3 Xrotation Yrotation Zrotation
										JOINT LeftHandRing3
										{
											OFFSET 2.728851 0.000000 0.000000
											CHANNELS 3 Xrotation Yrotation Zrotation
											End Site
											{
												OFFSET -0.815796 2.539223 0.577389
											}
										}
									}
								}
								JOINT LeftHandPinky1
								{
									OFFSET 7.854515 -0.675232 -5.213020
									CHANNELS 3 Xrotation Yrotation Zrotation
									JOINT LeftHandPinky2
									{
										OFFSET 3.068596 0.000000 0.000000
										CHANNELS 3 Xrotation Yrotation Zrotation
										JOINT LeftHandPinky3
										{
											OFFSET 2.396042 0.000000 0.000000
											CHANNELS 3 Xrotation Yrotation Zrotation
											End Site
											{
												OFFSET -0.524597 2.267998 0.567429
											}
										}
									}
								}
							}
							JOINT LeftSleeve
							{
								OFFSET 19.684509 -0.200119 0.476146
								CHANNELS 3 Xrotation Yrotation Zrotation
								End Site
								{
									OFFSET -0.031017 25.731133 -0.002868
								}
							}
						}
					}
				}
				JOINT RightShoulder
				{
					OFFSET -4.395900 7.341202 -1.870200
					CHANNELS 3 Xrotation Yrotation Zrotation
					JOINT RightArm
					{
						OFFSET -8.071453 0.936867 -2.181100
						CHANNELS 3 Xrotation Yrotation Zrotation
						JOINT RightForeArm
						{
							OFFSET -31.272011 0.000000 0.000000
							CHANNELS 3 Xrotation Yrotation Zrotation
							JOINT RightHand
							{
								OFFSET -31.771019 0.000000 0.000000
								CHANNELS 3 Xrotation Yrotation Zrotation
								JOINT RightHandThumb1
								{
									OFFSET -2.886520 -2.557808 4.416626
									CHANNELS 3 Xrotation Yrotation Zrotation
									JOINT RightHandThumb2
									{
										OFFSET -2.371056 -1.368927 1.368928
										CHANNELS 3 Xrotation Yrotation Zrotation
										JOINT RightHandThumb3
										{
											OFFSET -2.243362 -1.295204 1.295206
											CHANNELS 3 Xrotation Yrotation Zrotation
											End Site
											{
												OFFSET 0.332642 2.876938 0.020047
											}
										}
									}
								}
								JOINT RightHandIndex1
								{
									OFFSET -8.568993 -0.641953 3.120017
									CHANNELS 3 Xrotation Yrotation Zrotation
									JOINT RightHandIndex2
									{
										OFFSET -3.348518 0.000000 0.000000
										CHANNELS 3 Xrotation Yrotation Zrotation
										JOINT RightHandIndex3
										{
											OFFSET -3.314552 0.000000 0.000000
											CHANNELS 3 Xrotation Yrotation Zrotation
											End Site
											{
												OFFSET 1.032898 3.075478 0.678804
											}
										}
									}
								}
								JOINT RightHandMiddle1
								{
									OFFSET -8.124588 0.000000 0.000000
									CHANNELS 3 Xrotation Yrotation Zrotation
									JOINT RightHandMiddle2
									{
										OFFSET -4.166275 0.000000 0.000000
										CHANNELS 3 Xrotation Yrotation Zrotation
										JOINT RightHandMiddle3
										{
											OFFSET -3.018097 0.000000 0.000000
											CHANNELS 3 Xrotation Yrotation Zrotation
											End Site
											{
												OFFSET 1.032700 2.767937 0.617197
											}
										}
									}
								}
								JOINT RightHandRing1
								{
									OFFSET -8.571747 -0.031349 -2.884061
									CHANNELS 3 Xrotation Yrotation Zrotation
									JOINT RightHandRing2
									{
										OFFSET -3.671204 0.000000 0.000000
										CHANNELS 3 Xrotation Yrotation Zrotation
										JOINT RightHandRing3
										{
											OFFSET -2.728874 0.000000 0.000000
											CHANNELS 3 Xrotation Yrotation Zrotation
											End Site
											{
												OFFSET 0.815804 2.539261 0.577413
											}
										}
									}
								}
								JOINT RightHandPinky1
								{
									OFFSET -7.854561 -0.675247 -5.212970
									CHANNELS 3 Xrotation Yrotation Zrotation
									JOINT RightHandPinky2
									{
										OFFSET -3.068550 0.000000 0.000000
										CHANNELS 3 Xrotation Yrotation Zrotation
										JOINT RightHandPinky3
										{
											OFFSET -2.395981 0.000000 0.000000
											CHANNELS 3 Xrotation Yrotation Zrotation
											End Site
											{
												OFFSET 0.524605 2.267952 0.567413
											}
										}
									}
								}
							}
							JOINT RightSleeve
							{
								OFFSET -19.684753 -0.200165 0.476065
								CHANNELS 3 Xrotation Yrotation Zrotation
								End Site
								{
									OFFSET 0.031342 25.731255 -0.002917
								}
							}
						}
					}
				}
				JOINT Hood
				{
					OFFSET 0.369700 14.447800 -5.317800
					CHANNELS 3 Xrotation Yrotation Zrotation
					JOINT Hood1
					{
						OFFSET 0.001700 -5.553802 -5.895100
						CHANNELS 3 Xrotation Yrotation Zrotation
						JOINT Hood2
						{
							OFFSET -0.000200 -8.380501 0.763600
							CHANNELS 3 Xrotation Yrotation Zrotation
							End Site
							{
								OFFSET 0.000000 8.415215 0.000000
							}
						}
					}
				}
				JOINT Left_Breast
				{
					OFFSET 5.682500 3.120102 3.188800
					CHANNELS 3 Xrotation Yrotation Zrotation
					End Site
					{
						OFFSET 0.000000 10.528564 0.000000
					}
				}
				JOINT Right_Breast
				{
					OFFSET -4.947600 3.120102 3.185900
					CHANNELS 3 Xrotation Yrotation Zrotation
					End Site
					{
						OFFSET 0.000000 10.528564 0.000000
					}
				}
				JOINT Whistle
				{
					OFFSET 0.368200 11.471298 0.095400
					CHANNELS 3 Xrotation Yrotation Zrotation
					JOINT Whistle1
					{
						OFFSET -0.002000 -6.349899 7.479800
						CHANNELS 3 Xrotation Yrotation Zrotation
						JOINT Whistle2
						{
							OFFSET -0.001300 -8.217598 4.717600
							CHANNELS 3 Xrotation Yrotation Zrotation
							End Site
							{
								OFFSET 0.000000 9.475479 0.000000
							}
						}
					}
				}
			}
		}
		JOINT Belly
		{
			OFFSET 0.212400 1.593002 3.163700
			CHANNELS 3 Xrotation Yrotation Zrotation
			End Site
			{
				OFFSET 0.000000 7.496635 0.000000
			}
		}
	}
	JOINT FitGrandmaFacialAnim_Joint
	{
		OFFSET 1.150000 -86.211197 -1.220100
		CHANNELS 3 Xrotation Yrotation Zrotation
		End Site
		{
			OFFSET 0.000000 31.666618 0.000000
		}
	}
}
MOTION
Frames: 4
Frame Time: 0.016667
-2.483377 76.986862 0.995981 3.011891 -58.236112 6.472938 0.000000 -0.000002 -0.000000 -31.697511 10.719594 25.365405 44.298035 -9.062260 -10.058149 -14.564880 -2.375346 -8.843792 -0.000000 -0.000000 0.000000 -0.000002 0.000000 -0.000000 0.000003 -0.000002 -0.000001 -29.499768 -9.422055 -26.767059 50.826607 3.527858 -7.809590 -25.428777 1.456856 21.714920 0.000000 -0.000000 0.000000 -0.000001 -0.000000 -0.000000 -0.000001 0.000001 -0.000001 11.191400 0.108770 -2.692039 8.434583 0.027688 -5.592319 8.457039 0.027887 -5.591869 -21.555847 25.063365 12.062734 -0.293897 25.465781 -3.209029 0.000000 0.000000 0.000001 0.000000 0.000000 0.000001 0.000000 0.000000 0.000001 0.000000 0.000000 0.000001 0.000000 0.000000 0.000001 0.000000 0.000000 0.000001 0.000000 0.000000 0.000001 0.000000 0.000000 0.000001 0.000000 0.000000 0.000001 0.000000 0.000000 0.000001 0.000000 0.000000 0.000001 0.000000 0.000000 0.000001 0.000000 0.000000 0.000001 0.000000 0.000000 0.000001 0.000000 0.000000 0.000001 0.000000 0.000000 0.000001 0.000000 0.000000 0.000001 0.000000 0.000000 0.000001 0.000000 0.000000 0.000001 -6.221629 -11.503783 -4.023772 -23.062219 9.568434 -36.639645 0.046074 -43.168923 -0.011190 22.743803 -5.686047 15.979374 -1.064255 -7.954956 8.490073 2.373394 19.986132 -2.038324 0.000000 0.000002 -0.000002 13.340872 -1.006667 10.682290 -0.167591 0.303355 -31.105658 0.000000 -0.000001 0.000000 8.495430 -0.329571 -0.915336 0.231480 0.661175 -29.901875 0.000001 0.000000 -0.000003 6.111737 3.150958 -16.210937 0.047039 0.322424 -30.125488 -0.000000 -0.000001 -0.000000 -5.636052 7.709852 -13.878634 0.224347 0.276551 -46.588351 -0.000002 -0.000000 0.000000 0.000001 0.000001 -0.000002 -5.488225 10.658259 2.466467 -41.473906 -26.755591 30.079047 24.955616 111.862857 -23.308661 -8.702504 12.423129 -9.801879 0.265005 10.061126 -10.888481 1.383764 -17.412869 3.016245 0.000001 -0.000003 -0.000001 19.443622 11.174440 -13.340214 -0.118651 -0.322740 18.035586 0.000001 -0.000002 0.000001 4.320489 2.436971 -4.811720 0.349137 -0.461242 26.890328 -0.000000 0.000000 -0.000005 -7.005642 -10.695131 5.719834 0.111886 -0.089179 26.155875 -0.000000 -0.000001 0.000001 -19.433534 -20.238230 5.987847 0.223767 -0.085775 36.844595 -0.000001 0.000001 0.000001 -0.000001 0.000000 -0.000001 -0.000001 0.000001 -0.000001 -0.000001 0.000001 -0.000001 -0.000001 0.000001 -0.000001 -0.000001 0.000001 -0.000001 -0.000001 0.000001 -0.000001 -0.000001 0.000001 -0.000001 -0.000004 0.000001 -0.000001 -0.000004 0.000001 -0.000001 0.000000 0.000000 -0.000000 0.000000 -0.000002 -0.000000 
-2.506649 77.028465 1.151994 2.496362 -58.213900 5.704344 0.000000 0.000002 -0.000000 -31.378941 10.204543 25.506909 44.634702 -8.846681 -10.081603 -14.892811 -2.335289 -8.914024 -0.000000 -0.000000 0.000000 -0.000000 0.000001 0.000001 0.000001 -0.000002 0.000001 -28.943248 -9.893218 -26.634369 50.414610 3.763922 -7.756787 -25.353882 1.468858 21.680670 0.000000 -0.000000 -0.000000 0.000002 0.000001 0.000000 -0.000001 0.000002 0.000001 11.159277 0.073964 -2.759815 8.343009 -0.023350 -5.688295 8.371671 0.015601 -5.630537 -20.102599 24.801810 13.023841 -0.857427 25.691084 -3.215338 0.000001 0.000000 -0.000001 0.000001 0.000000 -0.000001 0.000001 0.000000 -0.000001 0.000001 0.000000 -0.000001 0.000001 0.000000 -0.000001 0.000001 0.000000 -0.000001 0.000001 0.000000 -0.000001 0.000001 0.000000 -0.000001 0.000001 0.000000 -0.000001 0.000001 0.000000 -0.000001 0.000001 0.000000 -0.000001 0.000001 0.000000 -0.000001 0.000001 0.000000 -0.000001 0.000001 0.000000 -0.000001 0.000001 0.000000 -0.000001 0.000001 0.000000 -0.000001 0.000001 0.000000 -0.000001 0.000001 0.000000 -0.000001 0.000001 0.000000 -0.000001 -6.221595 -11.502562 -4.090420 -23.051555 9.454011 -36.707407 0.206685 -43.116368 0.092953 22.538468 -5.934253 15.432490 -0.983738 -7.447182 8.678389 2.534425 20.452397 -1.857953 0.000002 0.000001 0.000001 13.342553 -1.008405 10.138463 -0.166788 0.303587 -31.649621 0.000001 0.000001 -0.000005 8.486652 -0.324240 -1.459182 0.234604 0.662883 -30.445766 -0.000000 0.000001 -0.000003 6.111048 3.157152 -16.754608 0.047449 0.326176 -30.669387 -0.000000 0.000001 0.000002 -5.627402 7.708073 -14.423261 0.226456 0.278302 -47.132328 -0.000001 0.000000 0.000002 0.000004 -0.000001 0.000002 -5.459878 9.874461 2.586599 -40.532538 -25.915556 31.217380 24.790665 110.210792 -23.382779 -8.889575 12.458788 -8.493639 0.272619 9.992003 -10.913339 1.407673 -17.475159 2.991979 -0.000001 0.000002 -0.000002 19.443718 11.174481 -13.267048 -0.118594 -0.322800 18.108997 0.000001 -0.000001 0.000001 4.319299 2.436251 -4.738279 0.349496 -0.461494 26.963715 -0.000001 -0.000001 -0.000006 -7.006188 -10.695760 5.792794 0.111868 -0.089687 26.229282 -0.000000 0.000002 -0.000002 -19.433731 -20.238499 6.060275 0.224076 -0.086042 36.918009 -0.000001 0.000001 0.000002 0.000001 -0.000004 0.000001 -0.000000 0.000001 0.000002 -0.000000 0.000001 0.000002 -0.000000 0.000001 0.000002 -0.000000 0.000001 0.000002 -0.000000 0.000001 0.000002 -0.000000 0.000001 0.000001 -0.000002 0.000002 -0.000002 -0.000002 0.000002 -0.000002 -0.000000 0.000001 0.000000 0.000000 0.000002 -0.000000 
-2.652806 77.059036 1.312473 1.924380 -58.186593 4.869994 0.000000 -0.000001 0.000000 -31.019451 9.879568 25.843259 44.934698 -8.898455 -10.131763 -15.281370 -2.300010 -8.956194 -0.000000 0.000001 -0.000000 0.000001 -0.000004 0.000001 -0.000000 0.000001 0.000000 -28.245865 -10.362342 -26.417061 50.079978 3.918365 -7.716005 -25.440885 1.459230 21.656008 0.000000 0.000001 0.000000 -0.000000 -0.000001 -0.000001 -0.000002 -0.000001 0.000000 11.071807 0.038222 -2.829821 8.093932 -0.081183 -5.786254 8.133082 -0.021278 -5.670396 -18.473599 24.513732 14.037471 -1.509212 25.960390 -3.156110 0.000001 -0.000000 -0.000000 0.000001 -0.000000 -0.000000 0.000001 -0.000000 -0.000000 0.000001 -0.000000 -0.000000 0.000001 -0.000000 -0.000000 0.000001 -0.000000 -0.000000 0.000001 -0.000000 -0.000000 0.000001 -0.000000 -0.000000 0.000001 -0.000000 -0.000000 0.000001 -0.000000 -0.000000 0.000001 -0.000000 -0.000000 0.000001 -0.000000 -0.000000 0.000001 -0.000000 -0.000000 0.000001 -0.000000 -0.000000 0.000001 -0.000000 -0.000000 0.000001 -0.000000 -0.000000 0.000001 -0.000000 -0.000000 0.000001 -0.000000 -0.000000 0.000001 -0.000000 -0.000000 -6.237334 -11.503377 -4.274837 -23.016759 9.112603 -36.903642 0.376364 -42.965817 0.192092 22.289803 -6.181488 14.845770 -0.897594 -6.894455 8.882395 2.708430 20.960140 -1.662710 0.000003 0.000001 0.000000 13.344379 -1.010281 9.546765 -0.165972 0.306014 -32.241454 0.000001 -0.000000 -0.000001 8.477196 -0.316696 -2.050868 0.237937 0.664718 -31.037667 0.000002 -0.000001 0.000002 6.110037 3.163956 -17.346119 0.047835 0.330130 -31.261209 -0.000000 0.000000 0.000002 -5.619467 7.706665 -15.015758 0.228763 0.280202 -47.724113 -0.000000 0.000001 -0.000002 -0.000004 -0.000000 0.000002 -5.454989 9.092295 2.875201 -39.552041 -24.929122 32.615260 32.279204 109.755198 -30.680045 -5.944218 12.171679 -6.772565 0.293743 9.798414 -10.982929 1.474600 -17.649547 2.924107 0.000002 0.000002 -0.000003 19.444031 11.174660 -13.062143 -0.118461 -0.322991 18.314515 0.000000 0.000001 -0.000000 4.315994 2.434212 -4.532569 0.350631 -0.462225 27.169224 -0.000001 0.000004 -0.000001 -7.007864 -10.697454 5.997232 0.111889 -0.091092 26.434806 -0.000002 -0.000002 -0.000003 -19.434383 -20.239266 6.263165 0.224713 -0.086844 37.123530 -0.000003 -0.000002 -0.000001 -0.000002 -0.000001 -0.000001 0.000003 0.000000 -0.000000 0.000003 0.000000 -0.000000 0.000003 0.000000 -0.000000 0.000003 0.000000 -0.000000 0.000003 0.000000 -0.000000 0.000002 0.000000 -0.000002 -0.000000 0.000002 -0.000002 -0.000000 0.000002 -0.000002 0.000001 0.000001 0.000000 0.000000 -0.000001 0.000000 
-2.860731 77.099594 1.473832 1.330786 -58.154327 4.010168 -0.000000 -0.000002 0.000000 -30.621189 9.697952 26.276320 45.143965 -9.103980 -10.186799 -15.663432 -2.268118 -8.975524 0.000000 -0.000003 0.000000 0.000002 -0.000002 -0.000001 0.000000 -0.000001 -0.000002 -27.446133 -10.832677 -26.142284 49.719785 4.028910 -7.675557 -25.578171 1.438330 21.631605 0.000000 -0.000001 0.000000 0.000003 -0.000001 -0.000000 0.000003 0.000002 -0.000001 10.941370 0.002732 -2.900296 7.716264 -0.138311 -5.878635 7.767795 -0.077120 -5.711213 -16.813195 24.183091 14.998416 -2.116841 26.147943 -2.929925 -0.000000 0.000000 0.000000 -0.000000 0.000000 0.000000 -0.000000 0.000000 0.000000 -0.000000 0.000000 0.000000 -0.000000 0.000000 0.000000 -0.000000 0.000000 0.000000 -0.000000 0.000000 0.000000 -0.000000 0.000000 0.000000 -0.000000 0.000000 0.000000 -0.000000 0.000000 0.000000 -0.000000 0.000000 0.000000 -0.000000 0.000000 0.000000 -0.000000 0.000000 0.000000 -0.000000 0.000000 0.000000 -0.000000 0.000000 0.000000 -0.000000 0.000000 0.000000 -0.000000 0.000000 0.000000 -0.000000 0.000000 0.000000 -0.000000 0.000000 0.000000 -6.272281 -11.473018 -4.554320 -22.962492 8.580389 -37.210276 0.522213 -42.740455 0.264847 22.035022 -6.411165 14.252144 -0.807498 -6.305752 9.098589 2.892313 21.501278 -1.455675 -0.000001 -0.000000 0.000000 13.346307 -1.012309 8.916815 -0.165087 0.308684 -32.871546 0.000000 -0.000000 -0.000003 8.471087 -0.308399 -2.680887 0.241571 0.666602 -31.667803 0.000001 -0.000001 0.000002 6.108673 3.171321 -17.975934 0.048347 0.334422 -31.891301 0.000001 -0.000001 -0.000000 -5.612735 7.705883 -15.646324 0.231230 0.282236 -48.354229 -0.000000 0.000001 -0.000001 0.000002 0.000001 0.000003 -5.464609 8.274677 3.337416 -38.620065 -23.706173 34.142866 37.232802 108.739200 -35.689859 -3.949289 11.691908 -4.741131 0.325860 9.501100 -11.089668 1.574323 -17.916677 2.815865 0.000000 -0.000003 0.000002 19.444456 11.174849 -12.747401 -0.118169 -0.323198 18.630205 -0.000001 -0.000001 -0.000001 4.310957 2.431051 -4.216701 0.352346 -0.463343 27.484866 -0.000000 0.000002 0.000002 -7.005745 -10.700423 6.312108 0.111867 -0.093226 26.750431 -0.000001 -0.000002 0.000001 -19.434432 -20.236058 6.577718 0.225754 -0.088089 37.439108 -0.000003 -0.000001 0.000002 -0.000001 -0.000001 -0.000003 0.000002 0.000000 -0.000001 0.000002 0.000000 -0.000001 0.000002 0.000000 -0.000001 0.000002 0.000000 -0.000001 0.000002 0.000000 -0.000001 0.000002 0.000000 -0.000002 -0.000001 0.000000 -0.000001 -0.000001 0.000000 -0.000001 0.000002 -0.000002 0.000001 -0.000000 -0.000002 0.000000 
